<mxfile host="app.diagrams.net" modified="2023-05-07T11:11:50.129Z" agent="Mozilla/5.0 (Windows NT 10.0; Win64; x64) AppleWebKit/537.36 (KHTML, like Gecko) Chrome/112.0.0.0 Safari/537.36 Edg/112.0.1722.58" etag="yaZwNimFkKqx_THMq7-Z" version="21.2.1" type="github">
  <diagram name="第 1 页" id="LMF30WJsC_eVFxENyc0a">
    <mxGraphModel dx="1952" dy="573" grid="1" gridSize="10" guides="1" tooltips="1" connect="1" arrows="1" fold="1" page="1" pageScale="1" pageWidth="827" pageHeight="1169" math="0" shadow="0">
      <root>
        <mxCell id="0" />
        <mxCell id="1" parent="0" />
        <mxCell id="6bwulyu_WuxafZeVzcqP-32" style="edgeStyle=orthogonalEdgeStyle;rounded=0;orthogonalLoop=1;jettySize=auto;html=1;exitX=1;exitY=0.5;exitDx=0;exitDy=0;" edge="1" parent="1" source="6bwulyu_WuxafZeVzcqP-6" target="6bwulyu_WuxafZeVzcqP-9">
          <mxGeometry relative="1" as="geometry" />
        </mxCell>
        <mxCell id="6bwulyu_WuxafZeVzcqP-33" style="edgeStyle=orthogonalEdgeStyle;rounded=0;orthogonalLoop=1;jettySize=auto;html=1;entryX=0.5;entryY=1;entryDx=0;entryDy=0;" edge="1" parent="1" source="6bwulyu_WuxafZeVzcqP-6" target="6bwulyu_WuxafZeVzcqP-8">
          <mxGeometry relative="1" as="geometry" />
        </mxCell>
        <mxCell id="6bwulyu_WuxafZeVzcqP-34" style="edgeStyle=orthogonalEdgeStyle;rounded=0;orthogonalLoop=1;jettySize=auto;html=1;exitX=0.5;exitY=1;exitDx=0;exitDy=0;entryX=0.5;entryY=0;entryDx=0;entryDy=0;" edge="1" parent="1" source="6bwulyu_WuxafZeVzcqP-6" target="6bwulyu_WuxafZeVzcqP-7">
          <mxGeometry relative="1" as="geometry" />
        </mxCell>
        <mxCell id="6bwulyu_WuxafZeVzcqP-6" value="员工" style="rounded=0;whiteSpace=wrap;html=1;" vertex="1" parent="1">
          <mxGeometry x="334" y="181.25" width="80" height="40" as="geometry" />
        </mxCell>
        <mxCell id="6bwulyu_WuxafZeVzcqP-7" value="工资" style="rounded=0;whiteSpace=wrap;html=1;" vertex="1" parent="1">
          <mxGeometry x="334" y="337.5" width="80" height="40" as="geometry" />
        </mxCell>
        <mxCell id="6bwulyu_WuxafZeVzcqP-8" value="考勤" style="rounded=0;whiteSpace=wrap;html=1;" vertex="1" parent="1">
          <mxGeometry x="334" y="30" width="80" height="40" as="geometry" />
        </mxCell>
        <mxCell id="6bwulyu_WuxafZeVzcqP-9" value="档案" style="rounded=0;whiteSpace=wrap;html=1;" vertex="1" parent="1">
          <mxGeometry x="520" y="181.25" width="80" height="40" as="geometry" />
        </mxCell>
        <mxCell id="6bwulyu_WuxafZeVzcqP-10" value="公司事项" style="rounded=0;whiteSpace=wrap;html=1;" vertex="1" parent="1">
          <mxGeometry x="40" y="337.5" width="80" height="40" as="geometry" />
        </mxCell>
        <mxCell id="6bwulyu_WuxafZeVzcqP-30" style="edgeStyle=orthogonalEdgeStyle;rounded=0;orthogonalLoop=1;jettySize=auto;html=1;exitX=1;exitY=0.5;exitDx=0;exitDy=0;" edge="1" parent="1" source="6bwulyu_WuxafZeVzcqP-11" target="6bwulyu_WuxafZeVzcqP-25">
          <mxGeometry relative="1" as="geometry" />
        </mxCell>
        <mxCell id="6bwulyu_WuxafZeVzcqP-35" style="edgeStyle=orthogonalEdgeStyle;rounded=0;orthogonalLoop=1;jettySize=auto;html=1;entryX=0.5;entryY=0;entryDx=0;entryDy=0;" edge="1" parent="1" source="6bwulyu_WuxafZeVzcqP-11" target="6bwulyu_WuxafZeVzcqP-26">
          <mxGeometry relative="1" as="geometry" />
        </mxCell>
        <mxCell id="6bwulyu_WuxafZeVzcqP-11" value="用户（管理员）" style="rounded=0;whiteSpace=wrap;html=1;" vertex="1" parent="1">
          <mxGeometry x="30" y="181.25" width="100" height="40" as="geometry" />
        </mxCell>
        <mxCell id="6bwulyu_WuxafZeVzcqP-12" value="事项内容" style="ellipse;whiteSpace=wrap;html=1;" vertex="1" parent="1">
          <mxGeometry x="95" y="420" width="90" height="50" as="geometry" />
        </mxCell>
        <mxCell id="6bwulyu_WuxafZeVzcqP-13" value="员工职称信息" style="ellipse;whiteSpace=wrap;html=1;" vertex="1" parent="1">
          <mxGeometry x="430" y="420" width="90" height="50" as="geometry" />
        </mxCell>
        <mxCell id="6bwulyu_WuxafZeVzcqP-14" value="员工工资信息" style="ellipse;whiteSpace=wrap;html=1;" vertex="1" parent="1">
          <mxGeometry x="230" y="420" width="90" height="50" as="geometry" />
        </mxCell>
        <mxCell id="6bwulyu_WuxafZeVzcqP-15" value="档案移交记录" style="ellipse;whiteSpace=wrap;html=1;" vertex="1" parent="1">
          <mxGeometry x="650" y="250" width="90" height="50" as="geometry" />
        </mxCell>
        <mxCell id="6bwulyu_WuxafZeVzcqP-16" value="员工档案信息" style="ellipse;whiteSpace=wrap;html=1;" vertex="1" parent="1">
          <mxGeometry x="650" y="90" width="90" height="50" as="geometry" />
        </mxCell>
        <mxCell id="6bwulyu_WuxafZeVzcqP-18" value="黑名单员工信息" style="ellipse;whiteSpace=wrap;html=1;" vertex="1" parent="1">
          <mxGeometry x="430" y="250" width="90" height="50" as="geometry" />
        </mxCell>
        <mxCell id="6bwulyu_WuxafZeVzcqP-19" value="试用员工信息" style="ellipse;whiteSpace=wrap;html=1;" vertex="1" parent="1">
          <mxGeometry x="414" y="90" width="90" height="50" as="geometry" />
        </mxCell>
        <mxCell id="6bwulyu_WuxafZeVzcqP-20" value="正式员工信息" style="ellipse;whiteSpace=wrap;html=1;" vertex="1" parent="1">
          <mxGeometry x="244" y="90" width="90" height="50" as="geometry" />
        </mxCell>
        <mxCell id="6bwulyu_WuxafZeVzcqP-21" value="员工基本信息" style="ellipse;whiteSpace=wrap;html=1;" vertex="1" parent="1">
          <mxGeometry x="230" y="250" width="90" height="50" as="geometry" />
        </mxCell>
        <mxCell id="6bwulyu_WuxafZeVzcqP-22" value="事项费用" style="ellipse;whiteSpace=wrap;html=1;" vertex="1" parent="1">
          <mxGeometry x="-30" y="420" width="90" height="50" as="geometry" />
        </mxCell>
        <mxCell id="6bwulyu_WuxafZeVzcqP-23" value="用户信息" style="ellipse;whiteSpace=wrap;html=1;" vertex="1" parent="1">
          <mxGeometry x="-20" y="90" width="90" height="50" as="geometry" />
        </mxCell>
        <mxCell id="6bwulyu_WuxafZeVzcqP-24" value="用户账号与密码" style="ellipse;whiteSpace=wrap;html=1;" vertex="1" parent="1">
          <mxGeometry x="95" y="90" width="90" height="50" as="geometry" />
        </mxCell>
        <mxCell id="6bwulyu_WuxafZeVzcqP-31" style="edgeStyle=orthogonalEdgeStyle;rounded=0;orthogonalLoop=1;jettySize=auto;html=1;exitX=1;exitY=0.5;exitDx=0;exitDy=0;entryX=0;entryY=0.5;entryDx=0;entryDy=0;" edge="1" parent="1" source="6bwulyu_WuxafZeVzcqP-25" target="6bwulyu_WuxafZeVzcqP-6">
          <mxGeometry relative="1" as="geometry" />
        </mxCell>
        <mxCell id="6bwulyu_WuxafZeVzcqP-25" value="管理" style="rhombus;whiteSpace=wrap;html=1;" vertex="1" parent="1">
          <mxGeometry x="185" y="180" width="85" height="42.5" as="geometry" />
        </mxCell>
        <mxCell id="6bwulyu_WuxafZeVzcqP-37" style="edgeStyle=orthogonalEdgeStyle;rounded=0;orthogonalLoop=1;jettySize=auto;html=1;exitX=0.5;exitY=1;exitDx=0;exitDy=0;entryX=0.5;entryY=0;entryDx=0;entryDy=0;" edge="1" parent="1" source="6bwulyu_WuxafZeVzcqP-26" target="6bwulyu_WuxafZeVzcqP-10">
          <mxGeometry relative="1" as="geometry" />
        </mxCell>
        <mxCell id="6bwulyu_WuxafZeVzcqP-26" value="管理" style="rhombus;whiteSpace=wrap;html=1;" vertex="1" parent="1">
          <mxGeometry x="37.5" y="260" width="85" height="42.5" as="geometry" />
        </mxCell>
        <mxCell id="6bwulyu_WuxafZeVzcqP-45" value="" style="endArrow=none;html=1;rounded=0;exitX=0.5;exitY=0;exitDx=0;exitDy=0;entryX=0.5;entryY=1;entryDx=0;entryDy=0;" edge="1" parent="1" source="6bwulyu_WuxafZeVzcqP-12" target="6bwulyu_WuxafZeVzcqP-10">
          <mxGeometry width="50" height="50" relative="1" as="geometry">
            <mxPoint x="-40" y="355" as="sourcePoint" />
            <mxPoint x="160" y="350" as="targetPoint" />
          </mxGeometry>
        </mxCell>
        <mxCell id="6bwulyu_WuxafZeVzcqP-46" value="" style="endArrow=none;html=1;rounded=0;exitX=0.5;exitY=0;exitDx=0;exitDy=0;entryX=0.5;entryY=1;entryDx=0;entryDy=0;" edge="1" parent="1" source="6bwulyu_WuxafZeVzcqP-22" target="6bwulyu_WuxafZeVzcqP-10">
          <mxGeometry width="50" height="50" relative="1" as="geometry">
            <mxPoint x="-30" y="350" as="sourcePoint" />
            <mxPoint x="20" y="360" as="targetPoint" />
          </mxGeometry>
        </mxCell>
        <mxCell id="6bwulyu_WuxafZeVzcqP-48" value="" style="endArrow=none;html=1;rounded=0;exitX=0.5;exitY=0;exitDx=0;exitDy=0;entryX=0.5;entryY=1;entryDx=0;entryDy=0;" edge="1" parent="1" source="6bwulyu_WuxafZeVzcqP-11" target="6bwulyu_WuxafZeVzcqP-23">
          <mxGeometry width="50" height="50" relative="1" as="geometry">
            <mxPoint y="170" as="sourcePoint" />
            <mxPoint x="50" y="120" as="targetPoint" />
          </mxGeometry>
        </mxCell>
        <mxCell id="6bwulyu_WuxafZeVzcqP-49" value="" style="endArrow=none;html=1;rounded=0;exitX=0.5;exitY=0;exitDx=0;exitDy=0;entryX=0.5;entryY=1;entryDx=0;entryDy=0;" edge="1" parent="1" source="6bwulyu_WuxafZeVzcqP-11" target="6bwulyu_WuxafZeVzcqP-24">
          <mxGeometry width="50" height="50" relative="1" as="geometry">
            <mxPoint x="110" y="170" as="sourcePoint" />
            <mxPoint x="160" y="120" as="targetPoint" />
          </mxGeometry>
        </mxCell>
        <mxCell id="6bwulyu_WuxafZeVzcqP-50" value="" style="endArrow=none;html=1;rounded=0;entryX=0.5;entryY=0;entryDx=0;entryDy=0;" edge="1" parent="1" source="6bwulyu_WuxafZeVzcqP-19" target="6bwulyu_WuxafZeVzcqP-6">
          <mxGeometry width="50" height="50" relative="1" as="geometry">
            <mxPoint x="348.28932188134524" y="185" as="sourcePoint" />
            <mxPoint x="348.28932188134524" y="135" as="targetPoint" />
          </mxGeometry>
        </mxCell>
        <mxCell id="6bwulyu_WuxafZeVzcqP-51" value="" style="endArrow=none;html=1;rounded=0;entryX=0.5;entryY=1;entryDx=0;entryDy=0;" edge="1" parent="1" source="6bwulyu_WuxafZeVzcqP-21" target="6bwulyu_WuxafZeVzcqP-6">
          <mxGeometry width="50" height="50" relative="1" as="geometry">
            <mxPoint x="320" y="305" as="sourcePoint" />
            <mxPoint x="390.71067811865476" y="255" as="targetPoint" />
          </mxGeometry>
        </mxCell>
        <mxCell id="6bwulyu_WuxafZeVzcqP-52" value="" style="endArrow=none;html=1;rounded=0;entryX=0.5;entryY=0;entryDx=0;entryDy=0;" edge="1" parent="1" source="6bwulyu_WuxafZeVzcqP-20" target="6bwulyu_WuxafZeVzcqP-6">
          <mxGeometry width="50" height="50" relative="1" as="geometry">
            <mxPoint x="320" y="185" as="sourcePoint" />
            <mxPoint x="390.71067811865476" y="135" as="targetPoint" />
          </mxGeometry>
        </mxCell>
        <mxCell id="6bwulyu_WuxafZeVzcqP-53" value="" style="endArrow=none;html=1;rounded=0;entryX=0.5;entryY=1;entryDx=0;entryDy=0;" edge="1" parent="1" source="6bwulyu_WuxafZeVzcqP-18" target="6bwulyu_WuxafZeVzcqP-6">
          <mxGeometry width="50" height="50" relative="1" as="geometry">
            <mxPoint x="399.28932188134524" y="362.5" as="sourcePoint" />
            <mxPoint x="399.28932188134524" y="312.5" as="targetPoint" />
          </mxGeometry>
        </mxCell>
        <mxCell id="6bwulyu_WuxafZeVzcqP-54" value="" style="endArrow=none;html=1;rounded=0;entryX=0.5;entryY=1;entryDx=0;entryDy=0;" edge="1" parent="1" source="6bwulyu_WuxafZeVzcqP-14" target="6bwulyu_WuxafZeVzcqP-7">
          <mxGeometry width="50" height="50" relative="1" as="geometry">
            <mxPoint x="275" y="399.28932188134524" as="sourcePoint" />
            <mxPoint x="275" y="349.28932188134524" as="targetPoint" />
          </mxGeometry>
        </mxCell>
        <mxCell id="6bwulyu_WuxafZeVzcqP-55" value="" style="endArrow=none;html=1;rounded=0;entryX=0.5;entryY=1;entryDx=0;entryDy=0;" edge="1" parent="1" source="6bwulyu_WuxafZeVzcqP-13" target="6bwulyu_WuxafZeVzcqP-7">
          <mxGeometry width="50" height="50" relative="1" as="geometry">
            <mxPoint x="459" y="379.28932188134524" as="sourcePoint" />
            <mxPoint x="459" y="329.28932188134524" as="targetPoint" />
          </mxGeometry>
        </mxCell>
        <mxCell id="6bwulyu_WuxafZeVzcqP-56" value="" style="endArrow=none;html=1;rounded=0;entryX=1;entryY=0.5;entryDx=0;entryDy=0;" edge="1" parent="1" source="6bwulyu_WuxafZeVzcqP-15" target="6bwulyu_WuxafZeVzcqP-9">
          <mxGeometry width="50" height="50" relative="1" as="geometry">
            <mxPoint x="549.2893218813452" y="325" as="sourcePoint" />
            <mxPoint x="549.2893218813452" y="275" as="targetPoint" />
          </mxGeometry>
        </mxCell>
        <mxCell id="6bwulyu_WuxafZeVzcqP-57" value="" style="endArrow=none;html=1;rounded=0;entryX=1;entryY=0.5;entryDx=0;entryDy=0;" edge="1" parent="1" source="6bwulyu_WuxafZeVzcqP-16" target="6bwulyu_WuxafZeVzcqP-9">
          <mxGeometry width="50" height="50" relative="1" as="geometry">
            <mxPoint x="549.2893218813452" y="165" as="sourcePoint" />
            <mxPoint x="549.2893218813452" y="115" as="targetPoint" />
          </mxGeometry>
        </mxCell>
        <mxCell id="6bwulyu_WuxafZeVzcqP-58" value="" style="shape=table;startSize=0;container=1;collapsible=1;childLayout=tableLayout;fixedRows=1;rowLines=0;fontStyle=0;align=center;resizeLast=1;strokeColor=none;fillColor=none;collapsible=0;whiteSpace=wrap;html=1;" vertex="1" parent="1">
          <mxGeometry x="270" y="180" width="180" height="28" as="geometry" />
        </mxCell>
        <mxCell id="6bwulyu_WuxafZeVzcqP-59" value="" style="shape=tableRow;horizontal=0;startSize=0;swimlaneHead=0;swimlaneBody=0;fillColor=none;collapsible=0;dropTarget=0;points=[[0,0.5],[1,0.5]];portConstraint=eastwest;top=0;left=0;right=0;bottom=0;" vertex="1" parent="6bwulyu_WuxafZeVzcqP-58">
          <mxGeometry width="180" height="28" as="geometry" />
        </mxCell>
        <mxCell id="6bwulyu_WuxafZeVzcqP-60" value="" style="shape=partialRectangle;connectable=0;fillColor=none;top=0;left=0;bottom=0;right=0;editable=1;overflow=hidden;" vertex="1" parent="6bwulyu_WuxafZeVzcqP-59">
          <mxGeometry width="30" height="28" as="geometry">
            <mxRectangle width="30" height="28" as="alternateBounds" />
          </mxGeometry>
        </mxCell>
        <mxCell id="6bwulyu_WuxafZeVzcqP-61" value="n" style="shape=partialRectangle;connectable=0;fillColor=none;top=0;left=0;bottom=0;right=0;align=left;spacingLeft=6;overflow=hidden;" vertex="1" parent="6bwulyu_WuxafZeVzcqP-59">
          <mxGeometry x="30" width="150" height="28" as="geometry">
            <mxRectangle width="150" height="28" as="alternateBounds" />
          </mxGeometry>
        </mxCell>
        <mxCell id="6bwulyu_WuxafZeVzcqP-63" value="" style="shape=table;startSize=0;container=1;collapsible=1;childLayout=tableLayout;fixedRows=1;rowLines=0;fontStyle=0;align=center;resizeLast=1;strokeColor=none;fillColor=none;collapsible=0;whiteSpace=wrap;html=1;" vertex="1" parent="1">
          <mxGeometry x="30" y="300" width="180" height="30" as="geometry" />
        </mxCell>
        <mxCell id="6bwulyu_WuxafZeVzcqP-64" value="" style="shape=tableRow;horizontal=0;startSize=0;swimlaneHead=0;swimlaneBody=0;fillColor=none;collapsible=0;dropTarget=0;points=[[0,0.5],[1,0.5]];portConstraint=eastwest;top=0;left=0;right=0;bottom=0;" vertex="1" parent="6bwulyu_WuxafZeVzcqP-63">
          <mxGeometry width="180" height="30" as="geometry" />
        </mxCell>
        <mxCell id="6bwulyu_WuxafZeVzcqP-65" value="" style="shape=partialRectangle;connectable=0;fillColor=none;top=0;left=0;bottom=0;right=0;editable=1;overflow=hidden;" vertex="1" parent="6bwulyu_WuxafZeVzcqP-64">
          <mxGeometry width="30" height="30" as="geometry">
            <mxRectangle width="30" height="30" as="alternateBounds" />
          </mxGeometry>
        </mxCell>
        <mxCell id="6bwulyu_WuxafZeVzcqP-66" value="m" style="shape=partialRectangle;connectable=0;fillColor=none;top=0;left=0;bottom=0;right=0;align=left;spacingLeft=6;overflow=hidden;" vertex="1" parent="6bwulyu_WuxafZeVzcqP-64">
          <mxGeometry x="30" width="150" height="30" as="geometry">
            <mxRectangle width="150" height="30" as="alternateBounds" />
          </mxGeometry>
        </mxCell>
        <mxCell id="6bwulyu_WuxafZeVzcqP-67" value="" style="shape=table;startSize=0;container=1;collapsible=1;childLayout=tableLayout;fixedRows=1;rowLines=0;fontStyle=0;align=center;resizeLast=1;strokeColor=none;fillColor=none;collapsible=0;whiteSpace=wrap;html=1;" vertex="1" parent="1">
          <mxGeometry x="120" y="180" width="180" height="30" as="geometry" />
        </mxCell>
        <mxCell id="6bwulyu_WuxafZeVzcqP-68" value="" style="shape=tableRow;horizontal=0;startSize=0;swimlaneHead=0;swimlaneBody=0;fillColor=none;collapsible=0;dropTarget=0;points=[[0,0.5],[1,0.5]];portConstraint=eastwest;top=0;left=0;right=0;bottom=0;" vertex="1" parent="6bwulyu_WuxafZeVzcqP-67">
          <mxGeometry width="180" height="30" as="geometry" />
        </mxCell>
        <mxCell id="6bwulyu_WuxafZeVzcqP-69" value="" style="shape=partialRectangle;connectable=0;fillColor=none;top=0;left=0;bottom=0;right=0;editable=1;overflow=hidden;" vertex="1" parent="6bwulyu_WuxafZeVzcqP-68">
          <mxGeometry width="30" height="30" as="geometry">
            <mxRectangle width="30" height="30" as="alternateBounds" />
          </mxGeometry>
        </mxCell>
        <mxCell id="6bwulyu_WuxafZeVzcqP-70" value="1" style="shape=partialRectangle;connectable=0;fillColor=none;top=0;left=0;bottom=0;right=0;align=left;spacingLeft=6;overflow=hidden;" vertex="1" parent="6bwulyu_WuxafZeVzcqP-68">
          <mxGeometry x="30" width="150" height="30" as="geometry">
            <mxRectangle width="150" height="30" as="alternateBounds" />
          </mxGeometry>
        </mxCell>
        <mxCell id="6bwulyu_WuxafZeVzcqP-71" value="" style="shape=table;startSize=0;container=1;collapsible=1;childLayout=tableLayout;fixedRows=1;rowLines=0;fontStyle=0;align=center;resizeLast=1;strokeColor=none;fillColor=none;collapsible=0;whiteSpace=wrap;html=1;" vertex="1" parent="1">
          <mxGeometry x="30" y="230" width="180" height="30" as="geometry" />
        </mxCell>
        <mxCell id="6bwulyu_WuxafZeVzcqP-72" value="" style="shape=tableRow;horizontal=0;startSize=0;swimlaneHead=0;swimlaneBody=0;fillColor=none;collapsible=0;dropTarget=0;points=[[0,0.5],[1,0.5]];portConstraint=eastwest;top=0;left=0;right=0;bottom=0;" vertex="1" parent="6bwulyu_WuxafZeVzcqP-71">
          <mxGeometry width="180" height="30" as="geometry" />
        </mxCell>
        <mxCell id="6bwulyu_WuxafZeVzcqP-73" value="" style="shape=partialRectangle;connectable=0;fillColor=none;top=0;left=0;bottom=0;right=0;editable=1;overflow=hidden;" vertex="1" parent="6bwulyu_WuxafZeVzcqP-72">
          <mxGeometry width="30" height="30" as="geometry">
            <mxRectangle width="30" height="30" as="alternateBounds" />
          </mxGeometry>
        </mxCell>
        <mxCell id="6bwulyu_WuxafZeVzcqP-74" value="1" style="shape=partialRectangle;connectable=0;fillColor=none;top=0;left=0;bottom=0;right=0;align=left;spacingLeft=6;overflow=hidden;" vertex="1" parent="6bwulyu_WuxafZeVzcqP-72">
          <mxGeometry x="30" width="150" height="30" as="geometry">
            <mxRectangle width="150" height="30" as="alternateBounds" />
          </mxGeometry>
        </mxCell>
        <mxCell id="6bwulyu_WuxafZeVzcqP-76" value="考勤信息" style="ellipse;whiteSpace=wrap;html=1;" vertex="1" parent="1">
          <mxGeometry x="490" y="25" width="90" height="50" as="geometry" />
        </mxCell>
        <mxCell id="6bwulyu_WuxafZeVzcqP-77" value="" style="endArrow=none;html=1;rounded=0;entryX=0;entryY=0.5;entryDx=0;entryDy=0;" edge="1" parent="1" source="6bwulyu_WuxafZeVzcqP-8" target="6bwulyu_WuxafZeVzcqP-76">
          <mxGeometry width="50" height="50" relative="1" as="geometry">
            <mxPoint x="414" y="100" as="sourcePoint" />
            <mxPoint x="484.71067811865476" y="50" as="targetPoint" />
          </mxGeometry>
        </mxCell>
      </root>
    </mxGraphModel>
  </diagram>
</mxfile>
